<svg xmlns="http://www.w3.org/2000/svg" width="16" height="16" viewBox="0 0 16 16" fill="none">
<path d="M0.125193 5.62224C-0.0146089 4.0243 -0.0845099 3.22533 0.173073 2.58779C0.39965 2.02699 0.797947 1.55232 1.31088 1.2318C1.89401 0.867425 2.69298 0.797524 4.29092 0.657722L10.3778 0.125193C11.9757 -0.0146089 12.7747 -0.0845099 13.4122 0.173073C13.973 0.39965 14.4477 0.797947 14.7682 1.31088C15.1326 1.89401 15.2025 2.69298 15.3423 4.29092L15.8748 10.3778C16.0146 11.9757 16.0845 12.7747 15.8269 13.4122C15.6004 13.973 15.2021 14.4477 14.6891 14.7682C14.106 15.1326 13.307 15.2025 11.7091 15.3423L5.62224 15.8748C4.0243 16.0146 3.22533 16.0845 2.58779 15.8269C2.02699 15.6004 1.55232 15.2021 1.2318 14.6891C0.867425 14.106 0.797524 13.307 0.657722 11.7091L0.125193 5.62224Z" fill="#F2C94C"/>
</svg>